HIERARCHY
ROOT Hips
{
	OFFSET 0.000000 0.000000 0.000000
	CHANNELS 6 Xposition Yposition Zposition Xrotation Yrotation Zrotation
	JOINT LeftUpLeg_virtual
	{
		OFFSET 0.000000 0.000000 0.000000
		CHANNELS 3 Xrotation Yrotation Zrotation
		JOINT LeftUpLeg
		{
			OFFSET 15.427100 -6.655098 0.678600
			CHANNELS 3 Xrotation Yrotation Zrotation
			JOINT LeftLeg
			{
				OFFSET 4.081073 -39.591068 13.024000
				CHANNELS 3 Xrotation Yrotation Zrotation
				JOINT LeftFoot
				{
					OFFSET -4.081074 -37.707932 -15.979700
					CHANNELS 3 Xrotation Yrotation Zrotation
					JOINT LeftToeBase
					{
						OFFSET 5.346399 -15.068900 20.645000
						CHANNELS 3 Xrotation Yrotation Zrotation
						JOINT LeftToe_End
						{
							OFFSET 2.754700 0.931300 11.300900
							CHANNELS 3 Xrotation Yrotation Zrotation
							End Site
							{
								OFFSET 0 0 0
							}
						}
					}
				}
			}
		}
	}
	JOINT RightUpLeg_virtual
	{
		OFFSET 0.000000 0.000000 0.000000
		CHANNELS 3 Xrotation Yrotation Zrotation
		JOINT RightUpLeg
		{
			OFFSET -15.569500 -6.655098 0.678600
			CHANNELS 3 Xrotation Yrotation Zrotation
			JOINT RightLeg
			{
				OFFSET -4.081825 -39.591045 13.023800
				CHANNELS 3 Xrotation Yrotation Zrotation
				JOINT RightFoot
				{
					OFFSET 4.081824 -37.707954 -15.979600
					CHANNELS 3 Xrotation Yrotation Zrotation
					JOINT RightToeBase
					{
						OFFSET -5.346400 -15.068900 20.645000
						CHANNELS 3 Xrotation Yrotation Zrotation
						JOINT RightToe_End
						{
							OFFSET -2.754700 0.931300 11.300900
							CHANNELS 3 Xrotation Yrotation Zrotation
							End Site
							{
								OFFSET 0 0 0
							}
						}
					}
				}
			}
		}
	}
	JOINT Spine_virtual
	{
		OFFSET 0.000000 0.000000 0.000000
		CHANNELS 3 Xrotation Yrotation Zrotation
		JOINT Spine
		{
			OFFSET -0.279200 12.230698 -2.892100
			CHANNELS 3 Xrotation Yrotation Zrotation
			JOINT Spine1
			{
				OFFSET -0.232667 10.192268 -1.242267
				CHANNELS 3 Xrotation Yrotation Zrotation
				JOINT Spine1_split
				{
					OFFSET -0.232667 10.192268 -1.242267
					CHANNELS 3 Xrotation Yrotation Zrotation
					JOINT Spine2
					{
						OFFSET -0.232667 10.192268 -1.242267
						CHANNELS 3 Xrotation Yrotation Zrotation
						JOINT Neck_virtual
						{
							OFFSET 0.000000 0.000000 0.000000
							CHANNELS 3 Xrotation Yrotation Zrotation
							JOINT Neck
							{
								OFFSET -0.418800 17.814194 8.416900
								CHANNELS 3 Xrotation Yrotation Zrotation
								JOINT Head
								{
									OFFSET 0.000000 7.031097 3.806800
									CHANNELS 3 Xrotation Yrotation Zrotation
									JOINT HeadTop_End
									{
										OFFSET 0.000000 24.646606 12.978600
										CHANNELS 3 Xrotation Yrotation Zrotation
										End Site
										{
											OFFSET 0 0 0
										}
									}
								}
							}
						}
						JOINT LeftShoulder_virtual
						{
							OFFSET 0.000000 0.000000 0.000000
							CHANNELS 3 Xrotation Yrotation Zrotation
							JOINT LeftShoulder
							{
								OFFSET 8.476499 7.247704 -3.868750
								CHANNELS 3 Xrotation Yrotation Zrotation
								JOINT LeftShoulder_split
								{
									OFFSET 8.476499 7.247704 -3.868750
									CHANNELS 3 Xrotation Yrotation Zrotation
									JOINT LeftArm
									{
										OFFSET 9.308998 -2.777710 0.208600
										CHANNELS 3 Xrotation Yrotation Zrotation
										JOINT LeftForeArm
										{
											OFFSET 29.972298 0.000000 0.000000
											CHANNELS 3 Xrotation Yrotation Zrotation
											JOINT LeftHand
											{
												OFFSET 26.026505 0.000000 0.000000
												CHANNELS 3 Xrotation Yrotation Zrotation
												End Site
												{
													OFFSET 0 0 0
												}
											}
										}
									}
								}
							}
						}
						JOINT RightShoulder_virtual
						{
							OFFSET 0.000000 0.000000 0.000000
							CHANNELS 3 Xrotation Yrotation Zrotation
							JOINT RightShoulder
							{
								OFFSET -7.570500 7.247704 -3.868750
								CHANNELS 3 Xrotation Yrotation Zrotation
								JOINT RightShoulder_split
								{
									OFFSET -7.570500 7.247704 -3.868750
									CHANNELS 3 Xrotation Yrotation Zrotation
									JOINT RightArm
									{
										OFFSET -9.308998 -2.777710 0.208500
										CHANNELS 3 Xrotation Yrotation Zrotation
										JOINT RightForeArm
										{
											OFFSET -29.972300 0.000000 0.000000
											CHANNELS 3 Xrotation Yrotation Zrotation
											JOINT RightHand
											{
												OFFSET -26.026505 0.000000 0.000000
												CHANNELS 3 Xrotation Yrotation Zrotation
												End Site
												{
													OFFSET 0 0 0
												}
											}
										}
									}
								}
							}
						}
					}
				}
			}
		}
	}
}
MOTION
Frames: 10
Frame Time: 0.03333333
-2.577819 93.273781 -1.480387 0.000000 0.000000 0.000000 -6.015830 -17.428449 -0.947876 2.194552 22.021606 6.870709 11.876422 4.160575 0.719302 -12.426644 -0.950713 -3.005960 1.189933 0.576273 -0.233854 0.000000 0.000000 0.000000 -6.278476 -15.173542 -0.755071 -9.179682 -8.980208 -13.217308 17.325053 -10.565625 0.475600 1.005412 -2.603022 6.342819 -4.020715 -0.047439 -0.138604 0.000000 0.000000 0.000000 -6.503149 -18.081505 -1.377817 8.965746 2.637793 -0.382215 -4.778548 1.515636 -0.738161 0.624658 0.820427 0.117150 0.000000 0.000000 0.000000 -5.530040 3.852794 -1.504288 4.590325 2.356003 0.731258 2.163627 -5.660173 5.266592 0.000000 0.000000 0.000000 -5.840236 3.825208 -1.732195 2.581508 -12.308749 -1.394840 -1.059215 -2.163253 -0.070953 15.476824 6.461498 -72.365752 3.134458 -7.738443 0.880102 0.000000 0.000000 0.000000 -4.483456 3.999873 -1.500705 0.135997 1.451487 4.610816 -3.268809 -3.596026 -1.063142 -2.012641 5.063508 80.375767 2.506226 21.842335 2.221809 0.000000 0.000000 0.000000 
-2.502609 93.211914 -1.503468 0.000000 0.000000 0.000000 -6.003655 -17.640905 -0.869917 1.904648 21.886404 6.895952 12.551105 4.142081 0.836835 -12.546489 -0.999297 -3.040157 1.298747 0.554799 -0.258052 0.000000 0.000000 0.000000 -6.217295 -15.335609 -0.700924 -9.293644 -9.111089 -13.063070 17.097657 -10.647041 0.217842 1.284825 -2.696759 6.654170 -4.388085 0.002656 -0.134176 0.000000 0.000000 0.000000 -6.530915 -18.143936 -1.345340 8.903439 2.624369 -0.387347 -4.809561 1.497264 -0.785155 0.553512 0.917842 0.076041 0.000000 0.000000 0.000000 -5.678282 3.840154 -1.549329 4.663773 2.369236 0.753674 2.202125 -5.626974 5.229684 0.000000 0.000000 0.000000 -5.853119 3.806834 -1.788011 2.548587 -12.239048 -1.563337 -1.074514 -2.110444 0.022527 15.522438 6.849347 -72.060668 2.945729 -7.591117 0.648565 0.000000 0.000000 0.000000 -4.481115 3.995364 -1.548477 0.097914 1.563616 4.803870 -3.174235 -3.529547 -1.082284 -2.014067 5.027155 80.666392 2.548051 22.332564 2.243207 0.000000 0.000000 0.000000 
-2.381160 93.074089 -1.569214 0.000000 0.000000 0.000000 -5.881731 -17.768116 -0.846925 1.024768 21.595106 7.212357 14.118365 3.946219 1.044163 -12.794660 -1.301556 -2.977213 1.250888 0.519392 -0.332509 0.000000 0.000000 0.000000 -6.133396 -15.336773 -0.732678 -9.403552 -9.567123 -12.791650 16.985931 -10.592904 -0.100126 1.099664 -2.644077 7.143283 -4.345185 0.110050 -0.042338 0.000000 0.000000 0.000000 -6.414561 -18.162146 -1.330843 8.829135 2.576199 -0.341636 -4.838759 1.467050 -0.867502 0.540345 0.950213 0.074309 0.000000 0.000000 0.000000 -5.820919 3.814665 -1.624676 4.725280 2.390431 0.728245 2.169974 -5.660281 5.342699 0.000000 0.000000 0.000000 -5.862051 3.775903 -1.853146 2.486784 -12.127846 -1.804791 -1.107594 -2.187512 0.086307 15.557419 7.156985 -71.426806 3.009448 -7.236181 0.533395 0.000000 0.000000 0.000000 -4.473581 3.975150 -1.616028 0.035253 1.620636 5.203905 -3.216560 -3.537001 -1.236541 -2.108698 5.378004 80.827366 2.762958 22.837818 2.305245 0.000000 0.000000 0.000000 
-2.207004 92.883820 -1.755503 0.000000 0.000000 0.000000 -5.668262 -17.781872 -0.850768 -0.287754 21.267785 7.676755 16.190851 3.669569 1.262436 -13.133698 -1.816556 -2.754696 1.087335 0.462664 -0.389083 0.000000 0.000000 0.000000 -6.040657 -15.172732 -0.814208 -9.556171 -10.243037 -12.502726 16.908214 -10.388620 -0.465804 0.515402 -2.470267 7.728860 -3.824537 0.256440 0.128962 0.000000 0.000000 0.000000 -6.157045 -18.148579 -1.345156 8.769988 2.500688 -0.270229 -4.857901 1.438430 -0.962289 0.580941 1.014113 0.115212 0.000000 0.000000 0.000000 -5.943961 3.786074 -1.707108 4.760866 2.413400 0.675825 2.081679 -5.747333 5.577023 0.000000 0.000000 0.000000 -5.857106 3.741382 -1.909479 2.404103 -11.951783 -2.105515 -1.066974 -2.409076 0.121094 15.467826 7.213819 -70.618460 3.284315 -6.762036 0.483400 0.000000 0.000000 0.000000 -4.459920 3.949185 -1.686446 -0.035499 1.615120 5.731151 -3.379790 -3.523981 -1.475620 -2.257402 6.006745 80.731292 3.138838 23.254685 2.427632 0.000000 0.000000 0.000000 
-1.982337 92.685905 -2.075607 0.000000 0.000000 0.000000 -5.382832 -17.732100 -0.848041 -1.680715 21.046150 8.082144 18.279389 3.425724 1.437217 -13.563557 -2.387014 -2.289823 0.915235 0.382433 -0.406196 0.000000 0.000000 0.000000 -5.914847 -14.958625 -0.876508 -9.733731 -11.003157 -12.253354 16.747829 -10.030627 -0.874206 -0.274111 -2.203356 8.315381 -3.133328 0.403536 0.368676 0.000000 0.000000 0.000000 -5.823050 -18.153810 -1.379189 8.781119 2.410494 -0.234484 -4.872085 1.424365 -1.042992 0.684914 1.127085 0.168741 0.000000 0.000000 0.000000 -6.030529 3.767109 -1.769127 4.738594 2.438024 0.650008 1.928657 -5.817062 5.872104 0.000000 0.000000 0.000000 -5.855973 3.717269 -1.935716 2.318169 -11.695972 -2.419092 -0.974064 -2.729208 0.243790 15.203277 6.992598 -69.776051 3.656787 -6.318193 0.420063 0.000000 0.000000 0.000000 -4.442896 3.925425 -1.735891 -0.112306 1.520716 6.315329 -3.606380 -3.412206 -1.683331 -2.399263 6.764386 80.304651 3.649574 23.471641 2.634036 0.000000 0.000000 0.000000 
-1.706435 92.499069 -2.501207 0.000000 0.000000 0.000000 -5.053023 -17.705146 -0.803719 -2.840595 21.102447 8.225990 19.902876 3.304925 1.507369 -14.068832 -2.837643 -1.591337 0.862993 0.295517 -0.411037 0.000000 0.000000 0.000000 -5.737621 -14.873816 -0.877367 -10.060572 -11.738331 -12.146972 16.452121 -9.545755 -1.298557 -0.861979 -1.889454 8.790192 -2.645919 0.503991 0.615502 0.000000 0.000000 0.000000 -5.508376 -18.296236 -1.428194 8.909868 2.315776 -0.294086 -4.896994 1.435182 -1.077355 0.770876 1.252111 0.241987 0.000000 0.000000 0.000000 -6.076496 3.762431 -1.778119 4.639005 2.475936 0.694101 1.721043 -5.798992 6.155661 0.000000 0.000000 0.000000 -5.862619 3.712427 -1.910508 2.248590 -11.324697 -2.693569 -0.877016 -3.011693 0.433165 14.734361 6.580166 -69.009861 3.949954 -6.042886 0.242416 0.000000 0.000000 0.000000 -4.422690 3.913621 -1.738460 -0.195464 1.352425 6.880987 -3.862480 -3.259196 -1.817194 -2.490529 7.473195 79.496640 4.252236 23.427563 2.938915 0.000000 0.000000 0.000000 
-1.426584 92.348434 -2.934795 0.000000 0.000000 0.000000 -4.780236 -17.937450 -0.714384 -3.488821 21.525865 8.062400 20.699184 3.313124 1.504800 -14.546397 -3.063159 -0.821787 0.882311 0.215736 -0.415604 0.000000 0.000000 0.000000 -5.583002 -15.093282 -0.810253 -10.737987 -12.342188 -12.201201 16.078795 -8.974057 -1.615745 -0.838902 -1.578074 9.086815 -2.547201 0.491842 0.822474 0.000000 0.000000 0.000000 -5.325558 -18.627493 -1.468158 9.231975 2.218221 -0.517681 -4.943834 1.471763 -1.035814 0.804799 1.323756 0.334696 0.000000 0.000000 0.000000 -6.080534 3.772741 -1.706280 4.450735 2.545985 0.840979 1.453398 -5.636455 6.358411 0.000000 0.000000 0.000000 -5.880138 3.728517 -1.813367 2.193985 -10.829713 -2.891994 -0.770947 -3.251066 0.628800 14.083707 6.128380 -68.383144 4.011925 -5.943492 -0.127285 0.000000 0.000000 0.000000 -4.416354 3.916180 -1.662846 -0.294404 1.146581 7.397005 -4.090070 -3.115503 -1.856061 -2.520534 8.052839 78.390136 4.891455 23.164805 3.345517 0.000000 0.000000 0.000000 
-1.109804 92.274567 -3.432156 0.000000 0.000000 0.000000 -4.631626 -18.581473 -0.604866 -3.530230 22.301257 7.636967 20.657021 3.423576 1.455569 -14.850901 -2.995520 -0.164301 0.932477 0.147593 -0.449959 0.000000 0.000000 0.000000 -5.517563 -15.741394 -0.706504 -11.880962 -12.744258 -12.433582 15.806567 -8.296656 -1.744126 0.028981 -1.195678 9.159775 -2.739865 0.313774 0.929322 0.000000 0.000000 0.000000 -5.304585 -19.191956 -1.493268 9.772326 2.123339 -0.952908 -5.029117 1.527701 -0.906400 0.803289 1.288840 0.357893 0.000000 0.000000 0.000000 -6.048923 3.796808 -1.534670 4.169987 2.672656 1.110691 1.114991 -5.283258 6.415142 0.000000 0.000000 0.000000 -5.921357 3.764641 -1.636162 2.157770 -10.248047 -2.995339 -0.652666 -3.437671 0.729712 13.395498 5.809374 -67.890646 3.749951 -6.112961 -0.710069 0.000000 0.000000 0.000000 -4.434350 3.932392 -1.490215 -0.412030 0.949425 7.828284 -4.268871 -2.971801 -1.858902 -2.452849 8.475857 77.070509 5.524291 22.789339 3.832682 0.000000 0.000000 0.000000 
-0.764275 92.286720 -4.007977 0.000000 0.000000 0.000000 -4.661952 -19.706202 -0.506988 -3.015918 23.395150 7.036140 19.956711 3.610816 1.374348 -14.948277 -2.639415 0.303928 1.002854 0.098582 -0.526372 0.000000 0.000000 0.000000 -5.612022 -16.832617 -0.632317 -13.401821 -12.871815 -12.760066 15.774628 -7.538966 -1.649128 1.560493 -0.748666 8.869141 -2.814925 -0.064649 0.853176 0.000000 0.000000 0.000000 -5.477923 -20.046923 -1.545295 10.542392 2.033697 -1.606491 -5.149879 1.592581 -0.684147 0.774889 1.167716 0.414450 0.000000 0.000000 0.000000 -6.001409 3.826652 -1.263396 3.794454 2.880901 1.474377 0.685371 -4.706678 6.297675 0.000000 0.000000 0.000000 -5.982069 3.808499 -1.383700 2.130850 -9.619517 -3.012376 -0.478572 -3.525357 0.738014 12.701390 5.646190 -67.457967 3.154306 -6.521220 -1.474440 0.000000 0.000000 0.000000 -4.483457 3.960779 -1.224186 -0.543002 0.803074 8.154236 -4.401573 -2.828090 -1.884296 -2.297132 8.826850 75.668435 6.131854 22.410607 4.333575 0.000000 0.000000 0.000000 
-0.402568 92.370110 -4.599676 0.000000 0.000000 0.000000 -4.886035 -21.223718 -0.502997 -2.108239 24.723273 6.360327 18.810093 3.845268 1.285650 -14.896212 -2.071292 0.570964 1.062106 0.073165 -0.603458 0.000000 0.000000 0.000000 -5.851558 -18.388674 -0.640556 -15.110103 -12.706445 -13.067497 15.930562 -6.708456 -1.423511 3.546449 -0.190361 8.361890 -2.833038 -0.660270 0.545185 0.000000 0.000000 0.000000 -5.795420 -21.221679 -1.658818 11.474337 1.952751 -2.430957 -5.293416 1.654259 -0.379068 0.772710 0.934870 0.427566 0.000000 0.000000 0.000000 -5.958898 3.855641 -0.915573 3.337850 3.188142 1.876485 0.158561 -3.882944 6.020924 0.000000 0.000000 0.000000 -6.067081 3.846656 -1.068549 2.104484 -9.021280 -2.960833 -0.257258 -3.538759 0.665554 12.030200 5.636147 -67.013807 2.335617 -7.088473 -2.335687 0.000000 0.000000 0.000000 -4.572569 3.991280 -0.875427 -0.663761 0.698831 8.389240 -4.486781 -2.636570 -1.983670 -2.076934 9.238571 74.379080 6.710361 22.096120 4.787196 0.000000 0.000000 0.000000 
